<mxfile host="app.diagrams.net" modified="2021-03-09T18:39:11.874Z" agent="5.0 (Windows NT 6.3; Win64; x64) AppleWebKit/537.36 (KHTML, like Gecko) Chrome/88.0.4324.150 Safari/537.36" etag="eamd8CxdXZXnc_IN2S23" version="14.4.6" type="github">
  <diagram name="Page-1" id="74e2e168-ea6b-b213-b513-2b3c1d86103e">
    <mxGraphModel dx="539" dy="399" grid="1" gridSize="10" guides="1" tooltips="1" connect="1" arrows="1" fold="1" page="1" pageScale="1" pageWidth="827" pageHeight="1169" background="#ffffff" math="0" shadow="0">
      <root>
        <mxCell id="0" />
        <mxCell id="1" parent="0" />
        <mxCell id="77e6c97f196da883-1" value="Корректирующие и предупреждающие действия" style="swimlane;html=1;childLayout=stackLayout;startSize=20;rounded=0;shadow=0;labelBackgroundColor=none;strokeWidth=1;fontFamily=Verdana;fontSize=8;align=center;" parent="1" vertex="1">
          <mxGeometry x="68" y="40" width="480" height="750" as="geometry" />
        </mxCell>
        <mxCell id="77e6c97f196da883-2" value="&lt;p&gt;&lt;font face=&quot;Verdana&quot; style=&quot;font-weight: normal&quot;&gt;Исполнитель&lt;/font&gt;&lt;/p&gt;" style="swimlane;html=1;startSize=20;" parent="77e6c97f196da883-1" vertex="1">
          <mxGeometry y="20" width="160" height="730" as="geometry" />
        </mxCell>
        <mxCell id="-Sih5HJPMX4oR5uwFVcA-15" value="&lt;font face=&quot;Verdana&quot;&gt;Объяснение возникновения брака&lt;/font&gt;" style="rounded=0;whiteSpace=wrap;html=1;" vertex="1" parent="77e6c97f196da883-2">
          <mxGeometry x="20" y="280" width="120" height="60" as="geometry" />
        </mxCell>
        <mxCell id="-Sih5HJPMX4oR5uwFVcA-16" value="" style="endArrow=classic;html=1;" edge="1" parent="77e6c97f196da883-2">
          <mxGeometry width="50" height="50" relative="1" as="geometry">
            <mxPoint x="82" y="340" as="sourcePoint" />
            <mxPoint x="177" y="390" as="targetPoint" />
            <Array as="points">
              <mxPoint x="82" y="390" />
            </Array>
          </mxGeometry>
        </mxCell>
        <mxCell id="-Sih5HJPMX4oR5uwFVcA-25" value="&lt;font face=&quot;Verdana&quot;&gt;Объяснение возникновения брака&lt;/font&gt;" style="rounded=0;whiteSpace=wrap;html=1;" vertex="1" parent="77e6c97f196da883-2">
          <mxGeometry x="20" y="530" width="120" height="60" as="geometry" />
        </mxCell>
        <mxCell id="77e6c97f196da883-3" value="&lt;span style=&quot;font-family: &amp;#34;verdana&amp;#34; ; font-weight: 400&quot;&gt;Менеджер по кач.&lt;/span&gt;" style="swimlane;html=1;startSize=20;" parent="77e6c97f196da883-1" vertex="1">
          <mxGeometry x="160" y="20" width="160" height="730" as="geometry" />
        </mxCell>
        <mxCell id="-Sih5HJPMX4oR5uwFVcA-9" value="&lt;p&gt;&lt;font face=&quot;Verdana&quot;&gt;Получение информации о НП&lt;/font&gt;&lt;/p&gt;" style="rounded=0;whiteSpace=wrap;html=1;" vertex="1" parent="77e6c97f196da883-3">
          <mxGeometry x="20" y="120" width="120" height="60" as="geometry" />
        </mxCell>
        <mxCell id="-Sih5HJPMX4oR5uwFVcA-10" value="&lt;font face=&quot;Verdana&quot;&gt;Сбор данных о локализации НС, исполнителях и размере убытка&lt;/font&gt;" style="rounded=0;whiteSpace=wrap;html=1;" vertex="1" parent="77e6c97f196da883-3">
          <mxGeometry x="20" y="200" width="120" height="60" as="geometry" />
        </mxCell>
        <mxCell id="-Sih5HJPMX4oR5uwFVcA-14" value="&lt;font face=&quot;Verdana&quot;&gt;Оформление акта о браке&lt;/font&gt;" style="rounded=0;whiteSpace=wrap;html=1;" vertex="1" parent="77e6c97f196da883-3">
          <mxGeometry x="20" y="280" width="120" height="60" as="geometry" />
        </mxCell>
        <mxCell id="-Sih5HJPMX4oR5uwFVcA-17" value="&lt;font face=&quot;Verdana&quot;&gt;Анализ данных&lt;/font&gt;" style="rounded=0;whiteSpace=wrap;html=1;" vertex="1" parent="77e6c97f196da883-3">
          <mxGeometry x="20" y="360" width="120" height="60" as="geometry" />
        </mxCell>
        <mxCell id="-Sih5HJPMX4oR5uwFVcA-19" value="&lt;font face=&quot;Verdana&quot;&gt;Формирование отчета с корректирующими действиями&lt;/font&gt;" style="rounded=0;whiteSpace=wrap;html=1;" vertex="1" parent="77e6c97f196da883-3">
          <mxGeometry x="20" y="440" width="120" height="60" as="geometry" />
        </mxCell>
        <mxCell id="77e6c97f196da883-4" value="&lt;span style=&quot;font-family: &amp;#34;verdana&amp;#34; ; font-weight: 400&quot;&gt;Руководитель&lt;/span&gt;" style="swimlane;html=1;startSize=20;" parent="77e6c97f196da883-1" vertex="1">
          <mxGeometry x="320" y="20" width="160" height="730" as="geometry" />
        </mxCell>
        <mxCell id="-Sih5HJPMX4oR5uwFVcA-7" value="&lt;font face=&quot;Verdana&quot;&gt;Несоответ-ствующая продукция&lt;/font&gt;" style="shape=process;whiteSpace=wrap;html=1;backgroundOutline=1;" vertex="1" parent="77e6c97f196da883-4">
          <mxGeometry x="-60" y="30" width="120" height="60" as="geometry" />
        </mxCell>
        <mxCell id="-Sih5HJPMX4oR5uwFVcA-12" value="" style="endArrow=classic;html=1;rounded=1;entryX=1;entryY=0.5;entryDx=0;entryDy=0;" edge="1" parent="77e6c97f196da883-4" target="-Sih5HJPMX4oR5uwFVcA-9">
          <mxGeometry width="50" height="50" relative="1" as="geometry">
            <mxPoint x="15" y="90" as="sourcePoint" />
            <mxPoint x="-15" y="150" as="targetPoint" />
            <Array as="points">
              <mxPoint x="15" y="150" />
            </Array>
          </mxGeometry>
        </mxCell>
        <mxCell id="-Sih5HJPMX4oR5uwFVcA-20" value="" style="endArrow=classic;html=1;entryX=0;entryY=0.5;entryDx=0;entryDy=0;" edge="1" parent="77e6c97f196da883-4" target="-Sih5HJPMX4oR5uwFVcA-22">
          <mxGeometry width="50" height="50" relative="1" as="geometry">
            <mxPoint x="-18" y="470" as="sourcePoint" />
            <mxPoint x="19.999999999999886" y="470" as="targetPoint" />
          </mxGeometry>
        </mxCell>
        <mxCell id="-Sih5HJPMX4oR5uwFVcA-22" value="&lt;font face=&quot;Verdana&quot;&gt;Согласование отчета&lt;/font&gt;" style="rhombus;whiteSpace=wrap;html=1;" vertex="1" parent="77e6c97f196da883-4">
          <mxGeometry x="20" y="430" width="120" height="80" as="geometry" />
        </mxCell>
        <mxCell id="-Sih5HJPMX4oR5uwFVcA-24" value="&lt;font face=&quot;Verdana&quot;&gt;нет&lt;/font&gt;" style="text;html=1;strokeColor=none;fillColor=none;align=center;verticalAlign=middle;whiteSpace=wrap;rounded=0;" vertex="1" parent="77e6c97f196da883-4">
          <mxGeometry x="77" y="407" width="40" height="20" as="geometry" />
        </mxCell>
        <mxCell id="-Sih5HJPMX4oR5uwFVcA-23" value="" style="endArrow=classic;html=1;exitX=0.5;exitY=0;exitDx=0;exitDy=0;entryX=1;entryY=0.5;entryDx=0;entryDy=0;" edge="1" parent="77e6c97f196da883-1" source="-Sih5HJPMX4oR5uwFVcA-22" target="-Sih5HJPMX4oR5uwFVcA-17">
          <mxGeometry width="50" height="50" relative="1" as="geometry">
            <mxPoint x="212" y="470" as="sourcePoint" />
            <mxPoint x="262" y="420" as="targetPoint" />
            <Array as="points">
              <mxPoint x="400" y="410" />
            </Array>
          </mxGeometry>
        </mxCell>
        <mxCell id="-Sih5HJPMX4oR5uwFVcA-8" value="&lt;font face=&quot;Verdana&quot;&gt;Работа с рекламациями&lt;/font&gt;" style="shape=process;whiteSpace=wrap;html=1;backgroundOutline=1;" vertex="1" parent="1">
          <mxGeometry x="165" y="90" width="120" height="60" as="geometry" />
        </mxCell>
        <mxCell id="-Sih5HJPMX4oR5uwFVcA-11" value="" style="endArrow=classic;html=1;entryX=0;entryY=0.5;entryDx=0;entryDy=0;" edge="1" parent="1" target="-Sih5HJPMX4oR5uwFVcA-9">
          <mxGeometry width="50" height="50" relative="1" as="geometry">
            <mxPoint x="210" y="150" as="sourcePoint" />
            <mxPoint x="330" y="170" as="targetPoint" />
            <Array as="points">
              <mxPoint x="210" y="210" />
            </Array>
          </mxGeometry>
        </mxCell>
      </root>
    </mxGraphModel>
  </diagram>
</mxfile>
